# xmcd
#
# Track frame offsets: 
#        150
#        7473
#        23496
#        43269
#        57417
#        62715
#        87813
#        105261
#        129159
#        135582
#
# Disc length: 1870 seconds
#
# Revision: 0
# Processed by: cddbd v1.5.2PL0 Copyright (c) Steve Scherf et al.
# Submitted via: ExactAudioCopy v0.99pb3
#
DISCID=7d074c0a
DTITLE=American Beat Records - If Toothpaste Tasted Like Christmas Din
DTITLE=ner
DYEAR=2007
DGENRE=Christmas/Holiday
TTITLE0=I Survived Christmas With You
TTITLE1=If Toothpaste Tasted Like Christmas Dinner
TTITLE2=Christmas At Bubba's
TTITLE3=The Night Before Trailer Park Christmas
TTITLE4=Naughty Or Nice
TTITLE5=Santa Ain't No Yankee
TTITLE6=Bocking Good Christmas
TTITLE7=The Easter Bunny's Christmas Blues
TTITLE8=I Am Santa
TTITLE9=Mrs. Claus Is Coming
EXTD=
EXTT0=
EXTT1=
EXTT2=
EXTT3=
EXTT4=
EXTT5=
EXTT6=
EXTT7=
EXTT8=
EXTT9=
PLAYORDER=
